<svg xmlns="http://www.w3.org/2000/svg" viewBox="0 0 512 512" role="img" aria-label="VALORAE Proxy Server Monitor">
  <defs>
    <linearGradient id="bg" x1="86" y1="52" x2="426" y2="460" gradientUnits="userSpaceOnUse">
      <stop offset="0" stop-color="#07100B"/>
      <stop offset="0.46" stop-color="#0D2E22"/>
      <stop offset="1" stop-color="#10251B"/>
    </linearGradient>
    <linearGradient id="mark" x1="112" y1="115" x2="392" y2="384" gradientUnits="userSpaceOnUse">
      <stop offset="0" stop-color="#B7FF73"/>
      <stop offset="0.45" stop-color="#23C983"/>
      <stop offset="1" stop-color="#087A57"/>
    </linearGradient>
    <linearGradient id="line" x1="156" y1="318" x2="365" y2="194" gradientUnits="userSpaceOnUse">
      <stop offset="0" stop-color="#EFFFF5"/>
      <stop offset="1" stop-color="#A7F36F"/>
    </linearGradient>
    <filter id="shadow" x="-18%" y="-18%" width="136%" height="136%">
      <feDropShadow dx="0" dy="18" stdDeviation="22" flood-color="#000000" flood-opacity="0.36"/>
    </filter>
  </defs>
  <rect x="24" y="24" width="464" height="464" rx="116" fill="url(#bg)"/>
  <rect x="42" y="42" width="428" height="428" rx="98" fill="none" stroke="#1D3A2C" stroke-width="3" opacity="0.95"/>
  <path d="M110 132h94l56 151 56-151h88L300 386h-84L110 132Z" fill="url(#mark)" filter="url(#shadow)"/>
  <path d="M158 314c38-1 61-17 83-45 18-22 36-54 75-59 22-3 44 4 65 18" fill="none" stroke="url(#line)" stroke-width="21" stroke-linecap="round" stroke-linejoin="round"/>
  <circle cx="158" cy="314" r="18" fill="#EFFFF5"/>
  <circle cx="261" cy="252" r="15" fill="#EFFFF5"/>
  <circle cx="382" cy="228" r="18" fill="#A7F36F"/>
  <path d="M137 126h58M317 126h58M215 392h86" stroke="#EFFFF5" stroke-width="13" stroke-linecap="round" opacity="0.72"/>
</svg>
