<svg xmlns="http://www.w3.org/2000/svg" viewBox="0 0 512 512" role="img" aria-labelledby="title desc">
  <title id="title">Valorae Proxy</title>
  <desc id="desc">Símbolo profissional do Valorae Proxy com escudo, letra V e nós de rede.</desc>
  <defs>
    <linearGradient id="bg" x1="64" x2="448" y1="64" y2="448" gradientUnits="userSpaceOnUse">
      <stop stop-color="#0B6B3A"/>
      <stop offset="0.52" stop-color="#149B6B"/>
      <stop offset="1" stop-color="#2F80ED"/>
    </linearGradient>
    <linearGradient id="line" x1="132" x2="380" y1="145" y2="370" gradientUnits="userSpaceOnUse">
      <stop stop-color="#E9FFF1"/>
      <stop offset="1" stop-color="#BDEBFF"/>
    </linearGradient>
    <filter id="shadow" x="-20%" y="-20%" width="140%" height="140%" color-interpolation-filters="sRGB">
      <feDropShadow dx="0" dy="20" stdDeviation="22" flood-color="#072817" flood-opacity="0.23"/>
    </filter>
  </defs>
  <rect width="512" height="512" rx="124" fill="#F8FCF7"/>
  <path d="M88 222c0-73 0-109 21-133 21-24 57-31 129-45l18-4 18 4c72 14 108 21 129 45 21 24 21 60 21 133v44c0 92-73 146-147 185l-21 11-21-11C161 412 88 358 88 266v-44Z" fill="url(#bg)" filter="url(#shadow)"/>
  <path d="M154 184 256 356 358 184" fill="none" stroke="url(#line)" stroke-width="46" stroke-linecap="round" stroke-linejoin="round"/>
  <path d="M256 356 256 220" fill="none" stroke="#DFFFEA" stroke-width="28" stroke-linecap="round" opacity=".9"/>
  <circle cx="154" cy="184" r="21" fill="#F3FFF8"/>
  <circle cx="256" cy="356" r="24" fill="#F3FFF8"/>
  <circle cx="358" cy="184" r="21" fill="#F3FFF8"/>
  <circle cx="256" cy="220" r="18" fill="#92E5BC"/>
  <path d="M142 137c20-22 55-28 114-40 59 12 94 18 114 40" fill="none" stroke="#FFFFFF" stroke-width="12" stroke-linecap="round" opacity=".32"/>
</svg>
