<svg xmlns="http://www.w3.org/2000/svg" viewBox="0 0 920 220" role="img" aria-labelledby="title desc">
  <title id="title">Valorae Proxy</title>
  <desc id="desc">Logotipo horizontal do Valorae Proxy.</desc>
  <defs>
    <linearGradient id="markBg" x1="22" x2="188" y1="22" y2="188" gradientUnits="userSpaceOnUse">
      <stop stop-color="#0B6B3A"/>
      <stop offset="0.55" stop-color="#149B6B"/>
      <stop offset="1" stop-color="#2F80ED"/>
    </linearGradient>
    <linearGradient id="markLine" x1="66" x2="154" y1="62" y2="158" gradientUnits="userSpaceOnUse">
      <stop stop-color="#F1FFF6"/>
      <stop offset="1" stop-color="#C8F0FF"/>
    </linearGradient>
  </defs>
  <rect x="10" y="10" width="200" height="200" rx="52" fill="#F8FCF7"/>
  <path d="M39 94c0-31 0-47 9-58 9-10 25-13 56-19l6-1 6 1c31 6 47 9 56 19 9 11 9 27 9 58v20c0 39-31 62-62 79l-9 5-9-5c-31-17-62-40-62-79V94Z" fill="url(#markBg)"/>
  <path d="M68 78 110 152 152 78" fill="none" stroke="url(#markLine)" stroke-width="21" stroke-linecap="round" stroke-linejoin="round"/>
  <path d="M110 152V96" stroke="#E8FFF0" stroke-width="12" stroke-linecap="round" opacity=".95"/>
  <circle cx="68" cy="78" r="10" fill="#F4FFF8"/><circle cx="110" cy="152" r="11" fill="#F4FFF8"/><circle cx="152" cy="78" r="10" fill="#F4FFF8"/><circle cx="110" cy="96" r="8" fill="#92E5BC"/>
  <text x="244" y="103" font-family="Inter, Roboto, system-ui, -apple-system, Segoe UI, sans-serif" font-size="70" font-weight="900" letter-spacing="7" fill="#18251E">VALORAE</text>
  <text x="248" y="158" font-family="Inter, Roboto, system-ui, -apple-system, Segoe UI, sans-serif" font-size="42" font-weight="800" letter-spacing="10" fill="#2F6F46">PROXY</text>
  <path d="M544 151h252" stroke="#CFE6D3" stroke-width="10" stroke-linecap="round"/>
  <circle cx="826" cy="151" r="10" fill="#2F80ED"/>
</svg>
